<svg width="97" height="70" viewBox="0 0 97 70" fill="none" xmlns="http://www.w3.org/2000/svg">
<path d="M3.1605 13.0141C2.16049 25.1095 5.66042 71.9666 18.1603 66.0143C28.6604 61.0143 21.1605 31.5141 22.1605 31.0141C23.1606 30.514 26.4988 64.5859 36.6604 60.0142C43.3291 57.014 39.6605 37.0141 39.1605 28.5141C38.6605 20.0141 50.9291 58.014 46.9291 59.014C42.9291 60.014 40.5291 28.2141 48.9291 27.0141C59.4291 25.5141 56.6358 54.8878 64.0076 56.312C70.1605 57.5006 69.318 48.1195 70.1605 39.0141M75.1605 55.014C73.6914 51.0831 71.8406 44.1205 70.1605 39.0141M70.1605 39.0141C64.7886 22.6862 64.9805 2.40463 70.1605 3.01404C75.4346 3.63451 71.538 24.1279 70.1605 39.0141ZM70.1605 39.0141C71.7845 38.3119 83.0538 31.1095 85.4538 25.1095M70.1605 39.0141C72.6178 43.3119 87.9538 48.7095 93.9538 45.1095" stroke="black" stroke-width="6" stroke-linecap="round"/>
<path d="M3.1605 13.0141C2.16049 25.1095 5.66042 71.9666 18.1603 66.0143C28.6604 61.0143 21.1605 31.5141 22.1605 31.0141C23.1606 30.514 26.4988 64.5859 36.6604 60.0142C43.3291 57.014 39.6605 37.0141 39.1605 28.5141C38.6605 20.0141 50.9291 58.014 46.9291 59.014C42.9291 60.014 40.5291 28.2141 48.9291 27.0141C59.4291 25.5141 56.6358 54.8878 64.0076 56.312C70.1605 57.5006 69.318 48.1195 70.1605 39.0141M75.1605 55.014C73.6914 51.0831 71.8406 44.1205 70.1605 39.0141M70.1605 39.0141C64.7886 22.6862 64.9805 2.40463 70.1605 3.01404C75.4346 3.63451 71.538 24.1279 70.1605 39.0141ZM70.1605 39.0141C71.7845 38.3119 83.0538 31.1095 85.4538 25.1095M70.1605 39.0141C72.6178 43.3119 87.9538 48.7095 93.9538 45.1095" stroke="url(#paint0_linear_11_3)" stroke-opacity="0.22" stroke-width="6" stroke-linecap="round"/>
<circle cx="21.1605" cy="19.5141" r="2.5" fill="black"/>
<defs>
<linearGradient id="paint0_linear_11_3" x1="48.4767" y1="3.00063" x2="48.4767" y2="66.5344" gradientUnits="userSpaceOnUse">
<stop stop-color="white" stop-opacity="0"/>
<stop offset="1" stop-color="white"/>
</linearGradient>
</defs>
</svg>
